<svg xmlns="http://www.w3.org/2000/svg" width="319" height="490.001" viewBox="0 0 319 490.001"><defs><style>.a{opacity:0.08;}.b{fill-rule:evenodd;}</style></defs><g class="a" transform="translate(5463.798 22653.059)"><path d="M429.953,472.257c-41.7-40.359-102.378-79.272-171.366-59.006-6.628,2.52-13.726,4.494-20.192,7.9,5.074-4.483,11.319-7.8,17.286-12.562,16.336-10.665,36.843-19.624,57.851-28.689,21.189-8.432,40.758-19.537,43.674-34.428,8.076,1.975,19.156-6.822,14.752-21.511-4.3-16.05-32.988-26.37-32.94-25.3-.441,0-9.515,10.492-2.2,23.054,5.391,10.128,10.013,19.27,17.736,22.863-3.732,13.883-22.676,24.385-43.539,31.831-20.959,8.432-41.832,17.027-58.839,27.165-33.8,20.707-55.022,44.2-58.7,49.136a94.187,94.187,0,0,0-11.041,14.977c-26.389,34.246-29.582,83.833-16.566,123.819,26.4,75.506,89.409,112.713,131.951,131.992,44.8,19.547,78.724,19.826,88.873,20.18,28.854.268,53.985-7.9,69.515-17.938,15.7-9.678,22.254-19.106,21.093-20.631-1.477-1.781-10.5,4.314-26.11,10.953-15.443,6.363-38.158,12.189-64.642,11.833-3-.1-8.3-.181-15.664-.814a57.163,57.163,0,0,1-29.612-26.446,51.317,51.317,0,0,1,13.775-64.747c2.417,2.157,8.259,1.074,14.187-1.34,6.139-2.424,12.153-9.419,12.422-9.5.191.173-5.295-7.186-15.481-3.324-8.26,3.229-13.1,10.137-11.665,13.271a55.623,55.623,0,0,0-20.422,28.775,57.039,57.039,0,0,0,3.185,38.653,58.277,58.277,0,0,0,16.518,21.253c-13.151-5.021-35.817-16.05-52.2-38.644-11.626-15.159-19.2-34.7-19.425-53.352-.768-18.292,5.7-35.156,12.557-47.258,3.952.364,10.369-6.277,16.163-14.249,5.794-8.6,8.566-18.656,8.748-18.752.268.1-8.221.911-18.043,11.93-8.2,8.882-10.993,18.474-7.942,20.621-7.224,11.928-15.175,28.966-15.4,48.149-.72,19.375,6.062,40.082,17.639,56.945a113.229,113.229,0,0,0,16.47,19.184c-15.894-9.056-34.6-22.509-49.189-42.41-16.652-21.243-27.06-49.931-23.108-74.864,2.647-24.664,19.29-43.052,35.808-52.011,5.976.087,19.4-6.64,33.611-11.48,16.038-6.007,25.947-3.85,26.533-4.032.4.8-15.616,1.61-37.88,4.215-18.58,2.683-26.389,9.324-23.885,11.117-17.228,8.882-35.357,26.638-39.76,52.547-5.7,25.824,4.306,56.217,20.739,79.981,7.136,10.846,15.751,19.729,24.46,27.8-36.354-19.547-82.8-53.8-103.174-110.739-10.869-33.633-11.991-73.608,6.637-105.268,17.458-31.209,46.666-52.731,77.42-63.308,64.671-20.621,125.217,14.976,167.586,54.962" transform="translate(-5622.229 -22906.74)"/><path class="b" d="M275.145,328.265c-13.346-5.2-20.163-17.158-34.719-21.105-5.079,5.214,7.9,8.719,7.768,15.277-9.659,22.458-38.455,25.867-44.34,52.108,2.467,20.758,10.2,43.946,21.162,49.947-2.967,1.086-.1,2.16,2.016,2.16-.807,3.591-8.891.192-5.8,7.643-7.94-21.1-28.978-48.6-15.4-73.327-1.44-4.216-5.847,4.416-9.66,3.869,3.591,24.071-.768,55.977,17.341,65.588-3.466,7.374-6.971,2.247-9.659,3.87-5.3-19.779-10.7-39.357-11.6-63.706-11.724,3.149-12.8,16.707-26.9,17.446,3.773-40.7,16.265-82.5,59.665-77.1,3.235-2.525,3.092-8.535,5.789-11.5-7.509-.71-14.018,5.117-15.315-3.956,31.983-6.9,48.2,9.878,59.655,32.789" transform="translate(-5562.845 -22946.967)"/></g></svg>