<svg xmlns="http://www.w3.org/2000/svg" width="1526.386" height="1235.492" viewBox="0 0 1526.386 1235.492"><defs><style>.a{opacity:0.069;}</style></defs><g class="a" transform="translate(1600.047 628.251) rotate(121)"><g transform="translate(0 0)"><path d="M536.7,0c13.653,2.086-112.649,131.943-320.272,431.755C142.484,543.113,89.836,646.806,59.437,757.245c-60.337,185.537-8.783,390.6,102.179,479.546,106.19,94.5,242.9,101.819,324.459,47.879,84.624-54.051,92.066-154.726,58.176-229.711C511.294,978.237,452.3,914.407,394.816,863.039c55.729,51.034,114.155,113.583,148.566,191.225,34.932,75.569,35.453,179.261-51.443,242.035-83.93,62.19-233.376,58.127-349.281-41.269C20.716,1161.225-32.752,945.577,20.666,760.152c29.7-111.024,80.785-213.2,150.49-322C376.207,145.309,525.008,8.833,536.7,0" transform="translate(143.021 0)"/><path d="M197.92,163.022c11.74-15.578,24.349-26.51,26.436-45.565,16.982,21.278,12.1,54.746-14.92,63.119-22.5,7.788-41.455,5.342-61.854-5.939C111.607,151.395,110.674,109.319,124.1,69.9,145.546,20.16,199.075-1.356,247.09,6.433c94.686,6.038,146.416,111.718,116.016,200.306-24.185,64.4-83.753,109.844-148.265,118.563C122.539,337.738,43.417,273.114,0,194.528c28.375,71.369,83.059,129.62,163.969,137.52,90.213,6.858,172.813-41.851,203.15-130.551C390.138,128.027,360.5,47.48,290.334,14.57,235.35-10.773,180.019-3.457,138.8,39.676c-36.548,42.437-30.623,121.471,29.181,146.243,34.7,14.186,69.059-9.182,68.761-46.722-1.864-13.728-3.131-22.908-18.945-26.4,3.9,26.857-19.591,49.864-19.878,50.224" transform="translate(189.724 881.243)"/><path d="M93.06,92.361c-4.533,9.305-10.062,16.275-9.3,26.387-10.932-9.294-11.8-27.43,1.627-34.4,10.982-6.286,21.157-7.093,32.958-3.143,21.095,8.6,25.864,30.561,22.734,52.661-6.286,28.25-32.15,44.759-58.077,45.456C32.785,185.706-4.882,135.481,2.15,85.964,8.424,49.688,35.058,20.048,68.065,8.893,115.2-6.561,162.988,19.241,193.673,55.976,171.635,21.688,137.173-3.544,93.931.408,46.089,5.874,7.616,39.589.585,89.107c-4.659,40.809,18.833,79.99,58.872,90.215,31.454,7.9,59.7-1.64,76.959-28.374,14.821-25.69,3.889-66.722-29.877-73.692C86.9,73.529,71.307,89.107,75.1,108.637c2.435,7.092,4.013,11.737,12.609,11.863C83,107.02,93,92.474,93.06,92.361" transform="translate(0 1037.806)"/><path d="M295.9,1312.512c-17.69-6.509-39.591-18.25-49.716-28.362-10.037-9.664-28.87-19.18-47.007-28.373-15.766-8.124-31.17-16.15-34.138-16.734a472.145,472.145,0,0,1-66.251-60.226c-45.4-56.139-19.355-33.131-57.792-116.24-16.434-41.269-39.678-123.583-12.931-202.5,24.758-78.6,80.885-136.951,113.1-164.6,33.591-28.5,65.282-50.351,97.545-73.83,32.25-23.02,64.673-46.5,95.953-72.425,63.232-52.661,114.042-113.223,159.149-182.5,21.728-34.884,40.213-74.053,49.865-117.184,10-42.549,7.5-90.45-7.565-128.341C502.284,43.766,453.35,25.282,441.9,17.144,380.167-11.7,360.117,2.15,364,13.307c2.275,12.434,13.206,23.6,14.486,24.535,2.782,1.5-3.305-8.486-.82-17.567,1.577-8.484,22.8-17.552,74.76,10.932,9.7,7.9,51.494,25.927,80.1,96.376,28.474,72.426,1.777,165.883-40.362,231.91-43.418,68.475-92.934,128.34-155.6,182.168-31.156,26.5-63.468,50.45-95.78,73.816-32.385,23.592-63.778,45.692-98.339,74.637C76.826,744.515,4.576,827.747.166,935.864c-3.553,105.9,50.673,192.629,98.625,244.358a486.668,486.668,0,0,0,65.916,59.281c1.987,4.882,45.045,39.057,91.183,60.45,45.107,21.615,68.947,21.74,71.033,22.1a225.1,225.1,0,0,1-31.019-9.541" transform="translate(142.854 128.502)"/><path d="M.173,0h0Z" transform="translate(354.079 1385.48)"/><path d="M3.809,8.54c1.974,2.213,16.8,22.561,18.025,32.9,2.56,11.393-10.286,9.641-10.994,9.418.746.347,17.318,6.161,18.771-3.256,3.143-8.248-12.026-30.7-14.41-34.064C10.257,6.914,3.522.877,1.25.056-1.309-.528.318,3.536,3.809,8.54" transform="translate(343.41 1334.615)"/><path d="M3.263,7.063c1.39,2.324,14.3,19.541,15.043,28.6,1.863,9.765-8.895,7.914-9.64,7.789.807.236,14.647,5.591,16.038-2.323,2.907-6.969-9.64-26.621-11.976-29.293C8.778,6.021,3.089.429,1.113.094-1.16-.6.293,2.653,3.263,7.063" transform="translate(331.373 1334.563)"/><path d="M0,0" transform="translate(340.04 1378.021)"/><path d="M.063,0h0Z" transform="translate(325.988 1370.453)"/><path d="M2.646,6.077c1.467,1.615,11.566,16.4,12.275,23.591,1.516,8.25-7.615,6.636-8.026,6.523.124,0,12.1,4.758,13.366-1.739,2.386-5.7-7.961-22.225-9.7-24.659C7.306,5.034,2.646.5.97.029-.944-.308.162,2.351,2.646,6.077" transform="translate(319.152 1334.28)"/><path d="M1.982,4.848c.944,1.391,9.242,12.908,9.541,18.833,1.155,6.634-6.46,4.882-6.46,4.882-.112-.1,9.416,4.311,10.584-1.031C17.684,23,9.77,9.731,8.268,7.878,5.646,4.388,2.105.438.7.09-.689-.492.118,1.829,1.982,4.848" transform="translate(306.999 1333.764)"/><path d="M46.322,29.384c-1.229.695-22.5,15.12-29.181,9.192-8.72-4.322,1.392-28.249,2.97-31.391,2.433-5.7,2.2-9.195-2.274-5.927C13.65,3.929,6.16,14.277,3.078,22.179.917,26.353-5.059,51.359,9.352,49.508c11.913.1,35.628-19.3,36.97-20.124" transform="translate(210.96 810.747)"/><path d="M.061,0,0,.1Z" transform="translate(257.235 840.032)"/><path d="M0,0" transform="translate(267.686 830.245)"/><path d="M2.685,16.56C.933,19.689-4.122,38.523,6.92,37.592c9.195.584,27.9-13.827,28.958-14.534-.994.584-17.727,10.932-22.733,6.4C6.462,25.964,14.66,7.826,15.817,5.615,17.679,1.2,17.568-1.466,14.139.857,11,3.056,5.069,10.621,2.685,16.56" transform="translate(231.843 807.196)"/><path d="M2.083,11.265C.791,13.588-3.035,26.732,4.755,26.5c6.744.572,21.044-10.237,20.807-9.988.112-.124-12.609,7.9-16.211,4.173C4.692,18.134,10.567,5.575,11.437,3.936,12.717.693,12.655-.946,10.219.57c-2.21,1.515-6.459,6.522-8.136,10.7" transform="translate(252.757 803.983)"/></g></g></svg>