<svg xmlns="http://www.w3.org/2000/svg" width="615" height="842" viewBox="0 0 615 842"><defs><style>.a{opacity:0.4;}.b{fill:#bebebe;}.c{fill-rule:evenodd;}</style></defs><g class="a" transform="translate(-0.001)"><path class="b" d="M260.013,298.892a36.4,36.4,0,0,1,6.366-12.279,55.264,55.264,0,0,1,14.774-12.733,67.458,67.458,0,0,1,11.771-5.961A52.155,52.155,0,0,1,298.438,266a22.989,22.989,0,0,1,6.107-1.415c2.176-.3,3.062-.351,5.761-.7.961-.054,1.879-.157,1.879-.157.038,0,1.264-.1,1.264-.1a20.386,20.386,0,0,0,2.721-.205c6.62-.6,13.213-3.434,12.414-11.523-1-10.562-12.711-11.015-21.864-8.586-2.376.6-5.178.907-8.132,2.273-8.812,3.937-20.367,12.479-28.121,23.089-5.276,7.025-8.71,14.757-9.828,20.616a34.574,34.574,0,0,0-.626,9.6" transform="translate(286.35 -242.099)"/><path class="b" d="M259.662,279.413a23.977,23.977,0,0,1,6.194-7.581,42.782,42.782,0,0,1,12.176-6.766,63.366,63.366,0,0,1,9.045-2.376c1.442-.2,2.775-.4,4.066-.507a19.3,19.3,0,0,1,4.5-.146c1.469.2,2.176.248,4.045.4.707.108,1.339.151,1.339.151.049,0,.886.1.886.1a7.128,7.128,0,0,0,1.992.254c4.649.556,9.676-.4,10.286-6.166.859-7.479-7.23-9.45-13.975-9.142a28.377,28.377,0,0,0-5.961.4,53.889,53.889,0,0,0-22.917,11.923,35.971,35.971,0,0,0-9.854,12.889,21.789,21.789,0,0,0-1.82,6.566" transform="translate(285.234 -217.866)"/><path class="b" d="M258.586,275.253a19.126,19.126,0,0,1,4.7-5.659,29.555,29.555,0,0,1,9.121-5.054,47.265,47.265,0,0,1,6.744-1.82c1.139-.1,2.149-.253,3.11-.4a17.68,17.68,0,0,1,3.386,0,18.512,18.512,0,0,1,3.083.243c.476.054.983.156.983.156l.632.049c.453.1.8.1,1.511.254,3.461.357,7.2-.4,7.684-4.7.653-5.61-5.405-7.176-10.487-6.923a29.353,29.353,0,0,0-4.471.357,40.431,40.431,0,0,0-17.23,8.937,27.973,27.973,0,0,0-7.327,9.606,20.879,20.879,0,0,0-1.442,4.952" transform="translate(280.525 -201.274)"/><path class="b" d="M257.529,270.156a13.3,13.3,0,0,1,3.035-3.742,20.539,20.539,0,0,1,5.956-3.283,33.162,33.162,0,0,1,4.4-1.161,9.606,9.606,0,0,1,2-.254,10.392,10.392,0,0,1,2.192-.049c.734.049,1.085.049,2.025.151.351.049.653.1.653.1l.432.108a8.428,8.428,0,0,1,.983.043c2.3.356,4.752-.2,5.027-2.981.432-3.634-3.537-4.644-6.82-4.493a11.673,11.673,0,0,0-2.9.2,26.117,26.117,0,0,0-11.291,5.864,17.586,17.586,0,0,0-4.8,6.264,13.406,13.406,0,0,0-.885,3.234" transform="translate(275.892 -187.192)"/><path class="b" d="M236.058,357.7c4.779-1.313,13.138-3.488,21.75-8.845a71.64,71.64,0,0,0,23.019-22.231c12.327-18.845,10.708-39.963,9.952-47.193a23.4,23.4,0,0,0-2.549-10.157c-1.771-3.893-5.432-7.425-5.81-11.717-.535-4.05,4.163-9.25,14.271-8.391,9.655.453,23.824,11.221,24.833,28.246a76.906,76.906,0,0,1-6.01,31.07c-5.205,13.094-15.691,26.178-27.792,34.926-12.382,8.736-25.821,13.029-35.649,14.093a92.073,92.073,0,0,1-16.016.2" transform="translate(181.76 -211.426)"/><path class="b" d="M266.764,382.318a40.644,40.644,0,0,1-15.692-.4,64.259,64.259,0,0,1-20.341-8.791,85.682,85.682,0,0,1-11.869-9.039c-1.717-1.571-3.337-3.192-4.725-4.7a28.41,28.41,0,0,1-4.5-5.566c-1.334-2.014-1.841-2.927-3.488-5.5-.551-.961-1.107-1.825-1.107-1.825-.022-.043-.707-1.312-.707-1.312-.459-.859-.913-1.464-1.614-2.678-3.839-6.415-9.984-11.821-17.889-7.025-10.281,6.269-4.925,18.5,2.019,26.631a49.258,49.258,0,0,0,6.366,7.225,88.787,88.787,0,0,0,37.544,17.333c9.73,1.917,19.347,1.614,25.9-.2a34.077,34.077,0,0,0,10.1-4.147" transform="translate(-67.836 160.556)"/><path class="b" d="M241.781,379.207a27.29,27.29,0,0,1-10.864-2.576,43.02,43.02,0,0,1-12.857-9.045,65.094,65.094,0,0,1-6.874-8.035c-1.042-1.414-1.846-2.678-2.651-3.893a27.779,27.779,0,0,1-2.279-4.595c-.659-1.62-.859-2.328-1.615-4.245-.281-.81-.508-1.517-.508-1.517l-.3-1.009c-.2-.659-.427-1.161-.735-2.123-1.717-5.005-5.2-9.7-11.393-7.43-8.105,2.829-6.14,12.079-2.479,18.8a38.859,38.859,0,0,0,3.337,5.912,62.363,62.363,0,0,0,23.548,17.533,43.033,43.033,0,0,0,18.041,3.694,23.662,23.662,0,0,0,7.629-1.469" transform="translate(-37.346 162.815)"/><path class="b" d="M233.318,370.016a20.986,20.986,0,0,1-8.138-1.922,35.345,35.345,0,0,1-9.676-6.82,61.608,61.608,0,0,1-5.179-6.058c-.686-1.01-1.361-2.025-1.922-2.932a22.248,22.248,0,0,1-1.744-3.385c-.448-1.215-.605-1.771-1.237-3.289-.157-.5-.383-1.064-.383-1.064,0-.1-.173-.751-.173-.751-.119-.508-.372-.858-.556-1.571-1.334-3.839-3.915-7.274-8.591-5.605-5.983,2.171-4.6,9.147-1.847,14.153a33.227,33.227,0,0,0,2.554,4.39,47.336,47.336,0,0,0,17.684,13.24,32.6,32.6,0,0,0,13.526,2.678,18.8,18.8,0,0,0,5.681-1.064" transform="translate(-13.37 171.756)"/><path class="b" d="M223.761,360.739a14.2,14.2,0,0,1-5.3-1.361,22.631,22.631,0,0,1-6.345-4.395,32.117,32.117,0,0,1-3.38-3.894c-.459-.756-.934-1.366-1.242-1.922a14.045,14.045,0,0,1-1.188-2.274c-.276-.81-.378-1.112-.756-2.068-.151-.459-.254-.756-.254-.756l-.173-.561c-.081-.254-.151-.459-.335-.956-.831-2.479-2.576-4.7-5.583-3.645-3.963,1.366-3.029,5.919-1.209,9.147a25.821,25.821,0,0,0,1.615,2.981,30.2,30.2,0,0,0,11.577,8.494,18.671,18.671,0,0,0,8.84,1.814,16.6,16.6,0,0,0,3.737-.6" transform="translate(8.169 182.544)"/><path class="b" d="M199.086,351.406a39.35,39.35,0,0,0-6.977,14.05,63.736,63.736,0,0,0-1.793,22.128,84.07,84.07,0,0,0,2.424,14.7c.578,2.273,1.263,4.4,1.922,6.366a30.057,30.057,0,0,0,2.775,6.572c1.139,2.122,1.8,2.98,3.234,5.659.578.956,1.139,1.868,1.139,1.868a12.582,12.582,0,0,0,.756,1.215c.556.81.859,1.512,1.62,2.727,3.888,6.367,5.756,14.347-2.2,19.1-10.384,6.166-18.591-4.347-22.56-14.4-1.058-2.576-2.576-5.3-3.359-8.947-2.246-10.654-2.246-26.977,2.3-41.276,2.878-9.5,7.651-17.889,12.349-22.786a38.838,38.838,0,0,1,8.37-6.977" transform="translate(-87.408 238.696)"/><path class="b" d="M188.03,349.778a28.065,28.065,0,0,0-2.829,10.816,43.977,43.977,0,0,0,2,15.659,53.108,53.108,0,0,0,3.855,9.8c.691,1.518,1.469,2.884,2.209,4.25a20.237,20.237,0,0,0,2.953,4.093c1.134,1.36,1.663,1.814,3.051,3.434.556.6,1.063,1.112,1.063,1.112.027.151.708.756.708.756.529.562.864.912,1.517,1.62,3.607,3.99,6.091,9.142,1.264,13.688-6.318,5.713-13.591-.351-17.792-6.717a39.2,39.2,0,0,1-3.612-5.708A60.655,60.655,0,0,1,178,373.575c.551-7.073,2.7-13.635,5.173-17.684a26.919,26.919,0,0,1,4.854-6.112" transform="translate(-73.876 231.54)"/><path class="b" d="M187.506,348.028a21.74,21.74,0,0,0-2.155,8.191,33.7,33.7,0,0,0,1.517,11.658,41.66,41.66,0,0,0,2.883,7.381c.535,1.112,1.112,2.176,1.69,3.137a14.98,14.98,0,0,0,2.176,3.127c.859.966,1.258,1.42,2.322,2.629.383.4.761.864.761.864a5.335,5.335,0,0,1,.529.508c.383.4.68.653,1.188,1.21,2.727,2.927,4.547,6.917.956,10.308-4.8,4.244-10.227-.3-13.364-5.108a23.9,23.9,0,0,1-2.727-4.293,45.992,45.992,0,0,1-3.359-21.826,32.073,32.073,0,0,1,3.942-13.191,21.775,21.775,0,0,1,3.64-4.6" transform="translate(-65.041 223.839)"/><path class="b" d="M186.035,345.932a15.483,15.483,0,0,0-1.345,5.3,21.991,21.991,0,0,0,.983,7.738,31.6,31.6,0,0,0,1.847,4.746c.378.756.756,1.415,1.161,2.122a12.7,12.7,0,0,0,1.415,2.02c.529.654.81.859,1.463,1.669.281.3.556.556.556.556l.308.4c.281.2.4.454.777.8,1.744,1.82,3.008,4.449.583,6.572-3.024,2.883-6.62-.1-8.688-3.235a16.968,16.968,0,0,1-1.8-2.775,30.392,30.392,0,0,1-2.122-14.25,19.807,19.807,0,0,1,2.559-8.645,15.238,15.238,0,0,1,2.3-3.029" transform="translate(-59.293 214.628)"/><path class="b" d="M468.75,477.524c4.066,15.567,2.549-13.694-3.737-29.159-1.669-2.522-9.806-20.308-19.585-33.09a171.017,171.017,0,0,0-42.269-38.808c-27.636-17.431-66.438-28.8-106.893-22.587-40.525,4.6-80.337,30.266-98.377,69.684-18.845,37.993-14.957,87.06,8.715,117.828,23.829,31.885,64.424,42.344,94.641,35.374,31-6.215,48.787-28.7,54.829-45.477,6.388-17.079,4.7-28.6,4.828-29.764-.335-9.957,1.258-19.2,6.739-21.118,5.179-1.874,13.11,6.922,13.645,20.314a22.8,22.8,0,0,1-.227,11.366c.481,6.977-.6,16.221-6.442,26.529-.254,5.664-4.671,11.161-8.748,16.825a87.258,87.258,0,0,1-14.7,16.826,92.016,92.016,0,0,1-46.184,22.841c-36.432,7.932-84.538-5.557-111.947-43.56-27.414-37.647-29.817-91.914-8.11-134.41,20.816-43.4,66.449-70.888,109.847-74.63,43.581-5.4,84.414,7.938,112.686,27.339a170.2,170.2,0,0,1,42.366,42.242c9.471,13.8,16.674,32.085,17.787,35.271,4.568,14,5.611,44.208,1.134,30.164" transform="translate(-106.151 194.197)"/><path class="b" d="M243.77,346.167c.632,1.21-14.25,5.756-30.395,20.972-16.323,14.649-31.783,41.784-32.134,71.093a99.059,99.059,0,0,0,7.986,40.924,35.4,35.4,0,0,0,26.345,18.9c9.455,1.566,19.126-1.614,21.221-4.244a9.921,9.921,0,0,0,2.781-6.366c.178-2.073,2.2-4.952,5.61-6.42,3.11-1.561,7.679,1.717,7.328,7.527a22.742,22.742,0,0,1-6.777,14.256c-7.975,7.025-18.947,9-32.155,7.122a47.152,47.152,0,0,1-34.013-26.124,108.139,108.139,0,0,1-7.527-46.081c1.744-31.983,19.86-60.229,38-74.279,18.094-14.806,33.829-17.685,33.732-17.28" transform="translate(-99.355 215.457)"/><path class="b" d="M215.778,366.654c-3.963,2.78-4.547,12.738-3.585,25.308a45.936,45.936,0,0,1,.151,12.279c-1.209,13.9-5.535,22.49-15.362,31.281-9.293,8.543-27.636,6.928-35.725-5,3.083,15.1,24.5,26.022,42.62,17.684,16.826-7.684,22.614-24.3,27.717-42.545a70.555,70.555,0,0,0-1.917-16.68c-6.3-18.289-10.918-24.86-13.9-22.328" transform="translate(-145.983 303.449)"/><path class="b" d="M340.247,405.246c-3.715-4.136-10.13-11.62-19.779-17.889A81.663,81.663,0,0,0,286.3,374.932c-25.465-3.235-46.157,8.839-53.177,13.186A27.169,27.169,0,0,0,224,395.8c-3.1,3.634-4.951,9.2-9.142,11.723-3.791,2.425-11.469.3-15.514-10.507-4.368-10.011-.4-29.92,16.5-39.37a86.763,86.763,0,0,1,34.688-9.142c15.994-1.16,34.618,2.878,49.542,11.064,15.038,8.289,26,19.909,31.988,29.462a102.442,102.442,0,0,1,8.186,16.215" transform="translate(13.635 225.083)"/><path class="b" d="M207.389,459.545a55.089,55.089,0,0,0,9.979-13.343,52.41,52.41,0,0,0,5.686-22.587c.378-16.723-8.618-29.861-11.8-34.353a18.661,18.661,0,0,0-5.41-5.665c-2.6-1.922-6.161-3.083-8.062-5.756-1.739-2.333-.929-7.436,5.637-10.26,6.091-3.234,18.8-1.118,25.9,9.7a62.2,62.2,0,0,1,4.32,54.926c-4.266,9.957-10.913,17.43-16.523,21.523a68.56,68.56,0,0,1-9.725,5.815" transform="translate(10.621 303.737)"/><path class="b" d="M184.332,401.235c-1.339-5.3,5.68-16.065,15.108-14.094,7.959,1.718,19.2,4.191,23.392,5.956,9.6,3.947,12.2,7.938,16.172,16.372,3.634,7.786,9.828,37.7,9.828,37.7s-13.062-13.181-22.765-15.157c-7.808-1.712-20.211-4.849-26.448-9.347-11.474-8.586-13.013-11.977-15.287-21.426" transform="translate(-45.604 394.835)"/><path class="b" d="M180.939,389.468c1.62-4.191,11.269-8.132,16.7-2.424,4.525,4.848,10.913,11.722,12.938,14.854,4.671,7.074,4.546,10.864,3.31,18.391-1.14,6.923-10.767,29.866-10.767,29.866s-2.727-14.855-8.283-20.768c-4.471-4.595-11.367-12.532-13.419-18.445-3.764-10.962-3.261-13.948-.48-21.474" transform="translate(-69.434 382.91)"/><path class="b" d="M179.581,384.735c2.225-3.077,10.837-4.136,13.947,1.566,2.678,4.86,6.339,11.728,7.279,14.655,2.171,6.723,1.285,9.865-1.344,15.621-2.419,5.249-15.027,21.62-15.027,21.62s.961-12.478-2.252-18.385c-2.624-4.752-6.469-12.592-6.847-17.739-.653-9.7.4-11.976,4.244-17.339" transform="translate(-84.943 374.245)"/><path class="b" d="M210.123,444.084c0-.459,11.372,7.527,30.444,8.289a50.571,50.571,0,0,0,9.806-.351,60.384,60.384,0,0,0,10.378-2.127c30.552-4.849,61.066-28.6,56.827-63.258-3.488-30.676-34.083-50.633-62-38.657-12.8,6.669-20.465,18.543-21.5,32.939-.178,18.3,15.13,28.246,27.285,37.906-13.494,13.035-33.932-1.971-41.864-15.568-16.323-29.051.1-67,30.622-77.562a83.285,83.285,0,0,1,14.828-3.79,31.745,31.745,0,0,1,8.515.054,34.433,34.433,0,0,1,9.855,2.321c34.887,12.431,54.818,53.917,39.893,89.382a63.4,63.4,0,0,1-5.74,11.016,59.568,59.568,0,0,1-6.944,9.044c-20.136,22.889-51.157,28.6-70.59,23.91-20.087-4.2-29.682-14.007-29.812-13.548" transform="translate(68.068 107.793)"/><path class="b" d="M192.708,476.449c-.885-1.717,24.661,1.669,76.525-.151,18.975-1.01,35.293-3.785,50.531-9.752,26.248-8.942,45.3-32.183,46.005-52.448,1.744-20.162-9.044-36.383-22.106-41.135-13.386-4.995-25.492,2.678-31.2,12.938-5.907,10.357-8.186,22.431-9.191,33.4,1.134-10.708,3.283-22.679,9.191-33.3,5.664-10.362,17.511-19.25,32.015-14.655,14.25,4.293,26.448,21.632,25.011,43.4-.378,21.831-20.384,46.286-46.135,56.038-15.184,6.015-31.173,8.893-49.516,10.157-50.908,1.468-79.1-3.888-81.125-4.5" transform="translate(-8.401 320.936)"/><path class="b" d="M311.278,396.453c-23.473-22.744-57.631-44.672-96.466-33.252-3.731,1.42-7.727,2.533-11.366,4.449,2.856-2.526,6.372-4.4,9.73-7.079,9.2-6.01,20.74-11.059,32.565-16.167,11.928-4.752,22.943-11.01,24.585-19.4,4.546,1.112,10.783-3.845,8.3-12.123-2.419-9.044-18.57-14.86-18.543-14.255a10.9,10.9,0,0,0-1.236,12.992c3.035,5.708,5.637,10.859,9.984,12.884-2.1,7.824-12.765,13.742-24.509,17.937-11.8,4.752-23.548,9.6-33.122,15.308-19.029,11.669-30.973,24.909-33.046,27.69a53.088,53.088,0,0,0-6.215,8.44c-14.855,19.3-16.652,47.242-9.325,69.776,14.86,42.55,50.331,63.517,74.278,74.381,25.217,11.015,44.316,11.172,50.029,11.372,16.242.151,30.39-4.45,39.132-10.108,8.839-5.454,12.527-10.767,11.874-11.626-.831-1-5.913,2.43-14.7,6.172a93.975,93.975,0,0,1-36.389,6.669c-1.69-.054-4.671-.1-8.818-.459a32.19,32.19,0,0,1-16.669-14.9,28.938,28.938,0,0,1,7.754-36.486c1.361,1.215,4.649.6,7.986-.756,3.456-1.366,6.841-5.308,6.992-5.351.108.1-2.981-4.05-8.715-1.873-4.649,1.82-7.376,5.712-6.566,7.478a31.342,31.342,0,0,0-11.5,16.216,32.174,32.174,0,0,0,1.793,21.782,32.834,32.834,0,0,0,9.3,11.977c-7.4-2.829-20.163-9.045-29.385-21.777-6.545-8.542-10.81-19.552-10.935-30.066-.432-10.308,3.208-19.811,7.068-26.631,2.225.205,5.837-3.537,9.1-8.03a47.056,47.056,0,0,0,4.924-10.567c.151.054-4.628.513-10.157,6.723-4.617,5.005-6.188,10.411-4.471,11.62-4.066,6.722-8.542,16.324-8.666,27.134-.405,10.918,3.412,22.587,9.93,32.09a63.774,63.774,0,0,0,9.272,10.811c-8.947-5.1-19.477-12.684-27.69-23.9-9.374-11.971-15.233-28.138-13.008-42.188,1.49-13.9,10.859-24.261,20.157-29.31,3.364.048,10.918-3.742,18.921-6.469,9.028-3.385,14.606-2.17,14.936-2.273.227.454-8.791.907-21.324,2.375-10.459,1.512-14.855,5.254-13.445,6.265-9.7,5.005-19.9,15.011-22.382,29.612-3.207,14.552,2.424,31.68,11.674,45.072a85.631,85.631,0,0,0,13.769,15.665c-20.465-11.015-46.61-30.32-58.079-62.4-6.118-18.953-6.75-41.481,3.736-59.321,9.827-17.587,26.27-29.715,43.581-35.676,36.4-11.621,70.487,8.439,94.338,30.972" transform="translate(-158.431 6.333)"/><path class="c" d="M227.1,313.23c-7.506-2.927-11.339-9.649-19.525-11.869-2.856,2.932,4.444,4.9,4.368,8.591-5.432,12.63-21.626,14.547-24.936,29.3,1.388,11.674,5.735,24.714,11.9,28.089-1.669.61-.054,1.215,1.134,1.215-.453,2.02-5,.108-3.261,4.3-4.465-11.868-16.3-27.333-8.661-41.238-.81-2.37-3.289,2.484-5.432,2.176,2.02,13.537-.432,31.48,9.752,36.885-1.949,4.147-3.92,1.264-5.432,2.176-2.981-11.123-6.015-22.134-6.523-35.827-6.593,1.771-7.2,9.4-15.13,9.811,2.122-22.89,9.147-46.395,33.554-43.361,1.819-1.42,1.739-4.8,3.256-6.468-4.223-.4-7.883,2.877-8.612-2.225,17.986-3.883,27.107,5.556,33.548,18.44" transform="translate(-128.004 -14.212)"/><path class="b" d="M220.726,395.8c5.151-.345,14.175-.853,24.05-4.389A76.6,76.6,0,0,0,273,373.468c16.528-16.771,19.228-38.6,19.963-46.081a25.752,25.752,0,0,0-.48-11.016c-.967-4.293-4-8.742-3.488-13.137.351-4.141,6.161-8.591,16.291-5.611,9.757,2.581,22.009,16.475,19.482,34.051A78.112,78.112,0,0,1,312.133,362c-8.062,12.382-21.426,23.651-35.676,30.012a82.728,82.728,0,0,1-39.289,6.928,87.307,87.307,0,0,1-16.442-3.143" transform="translate(114.547 -2.149)"/><path class="b" d="M215.618,282.486a49.929,49.929,0,0,0,4.136,14.655A48.19,48.19,0,0,0,233.1,313.87c11.928,9.6,26.577,10.357,31.556,10.556a17.652,17.652,0,0,0,7.273-.81c2.759-.756,5.583-2.829,8.542-2.624,2.754,0,5.988,3.434,4.444,9.8-1.134,6.161-9.779,14.25-21.545,13.391a53.6,53.6,0,0,1-20.745-6.518,56.655,56.655,0,0,1-21.728-20.918,49.407,49.407,0,0,1-6.491-24,52.083,52.083,0,0,1,1.215-10.26" transform="translate(86.87 -64.452)"/><path class="b" d="M285.382,275.069c6.312,2.025,13.234,15.713,5.4,24.3-6.593,7.23-16.091,17.43-20.411,20.714-10,7.581-15.713,7.835-26.907,6.831-10.281-1.015-45.071-12.738-45.071-12.738s21.6-5.659,29.639-14.45c6.415-7.122,17.273-18.089,25.794-21.68,15.789-6.771,20.287-6.313,31.556-2.981" transform="translate(16.703 -107.454)"/><path class="b" d="M275.081,280.949c3.056,3.942,1.485,15.308-6.928,17.333-7.1,1.614-17.182,3.791-21.221,4.045-9.32.4-12.954-1.82-19.374-7.279-5.918-4.849-22.333-26.729-22.333-26.729s15.654,5.664,24.277,3.639c6.971-1.668,18.246-3.791,25.038-2.43,12.533,2.533,15.076,4.7,20.54,11.421" transform="translate(46.669 -126.77)"/><path class="b" d="M274.021,291.19C275.938,295.64,271.57,306,263.1,305.8c-7.171-.248-17.274-.659-21.194-1.512-8.92-1.922-11.8-5.005-16.55-11.728-4.342-6.162-14.347-31.022-14.347-31.022s13.391,9.3,22.085,9.547c7.02.205,18.235,1.01,24.3,4.044,11.269,5.61,13.137,8.283,16.625,16.064" transform="translate(72.041 -156.587)"/><path class="b" d="M226.427,324.9c-.934-4.044,4.4-12.025,11.448-10.41,5.961,1.366,14.3,3.385,17.4,4.7,7.149,3.083,9.044,6.064,11.928,12.484,2.63,5.81,6.923,28.2,6.923,28.2s-9.649-9.957-16.853-11.577c-5.81-1.263-15.108-3.839-19.655-7.273-8.488-6.518-9.6-9.044-11.194-16.119" transform="translate(139.152 75.365)"/><path class="b" d="M222.7,321.379c.151-3.429,6.118-8.682,11.447-5.907,4.465,2.43,10.761,5.815,12.986,7.581,5.1,3.99,5.961,6.874,6.9,12.582.858,5.308-.481,24.309-.481,24.309s-5.637-10.157-11.091-12.987c-4.4-2.375-11.345-6.371-14.2-10.156-5.432-7.074-5.816-9.353-5.562-15.422" transform="translate(123.076 77.207)"/><path class="b" d="M246.582,284.2c3.591.2,8.062,6.16,4.249,11.269-3.261,4.4-7.937,10.459-10.157,12.63-5.108,4.9-8.213,5.756-14.4,6.571-5.74.81-25.47-.761-25.47-.761s11.572-5.3,15.513-10.61c3.186-4.347,8.645-11.065,13.11-13.8,8.337-5.3,10.789-5.61,17.155-5.3" transform="translate(27.312 -57.271)"/><path class="b" d="M239.781,248.734a75.372,75.372,0,0,0-6.923,20.411,66.283,66.283,0,0,0,1.717,29.2c5.74,19.963,21.329,31.329,26.783,35.174a21.62,21.62,0,0,0,8.586,4.341c3.8,1.064,8.439.659,11.631,3.035,3.051,1.971,3.882,8.337-2.786,14.8-6.037,6.469-22,9.86-34.38.405a68.694,68.694,0,0,1-17.863-22.787c-6.091-11.42-8.92-26.577-7.781-40.12,1.388-13.791,6.49-25.714,11.62-33.2a91.5,91.5,0,0,1,9.4-11.264" transform="translate(104.93 -212.904)"/><path class="b" d="M245.994,254.413a51.909,51.909,0,0,0-6.971,13.24,46.644,46.644,0,0,0-2.128,20.314c1.744,14.25,11.194,23.9,14.531,27.08a16.118,16.118,0,0,0,5.405,3.893c2.5,1.167,5.734,1.463,7.635,3.332,1.917,1.771,1.814,6.22-3.537,9.957-4.876,3.688-16.172,4.347-23.651-3.586a48.235,48.235,0,0,1-9.752-17.635,52.147,52.147,0,0,1-.858-28.446,50.628,50.628,0,0,1,11.647-21.426,65.14,65.14,0,0,1,7.679-6.723" transform="translate(133.811 -187.917)"/><path class="b" d="M205.645,361.444a61.048,61.048,0,0,0,15.162-6.523,51.026,51.026,0,0,0,15.816-16.01c8.386-13.44,6.922-28.246,6.291-33.251a16.263,16.263,0,0,0-1.944-7.069c-1.339-2.732-3.942-5.259-4.25-8.24-.427-2.732,2.754-6.523,9.876-6.01,6.75.1,16.879,7.473,17.841,19.4a53.377,53.377,0,0,1-3.764,21.826,57.716,57.716,0,0,1-18.948,25.012,55.655,55.655,0,0,1-24.838,10.357,84.35,84.35,0,0,1-11.242.508" transform="translate(48.524 -56.497)"/></g></svg>