<svg xmlns="http://www.w3.org/2000/svg" width="270.839" height="416.539" viewBox="0 0 270.839 416.539"><defs><style>.a{opacity:0.08;}.b{fill-rule:evenodd;}</style></defs><g class="a" transform="translate(0 0)"><path d="M652.552,446.248c-35.375-34.315-86.832-67.4-145.466-50.17-5.638,2.143-11.806,3.821-17.23,6.713,4.2-3.812,9.613-6.631,14.721-10.68,13.948-9.068,31.252-16.685,49.175-24.393,17.981-7.169,34.6-16.611,37.046-29.272,6.867,1.679,16.163-5.8,12.5-18.29-3.731-13.646-28.043-22.421-27.977-21.508-.374,0-8,8.921-1.751,19.6,4.5,8.612,8.392,16.384,14.949,19.439-3.128,11.8-19.292,20.733-37.052,27.064-17.768,7.169-35.456,14.478-49.786,23.1-28.889,17.606-46.813,37.583-50.006,41.778a76.678,76.678,0,0,0-9.3,12.734c-22.421,29.117-25.159,71.278-14.1,105.275,22.413,64.2,75.931,95.833,111.99,112.225,38.037,16.619,66.935,16.857,75.555,17.158,24.473.228,45.892-6.713,59.082-15.251,13.263-8.228,18.9-16.245,17.761-17.541-1.149-1.515-8.767,3.667-22.038,9.313a142.106,142.106,0,0,1-54.8,10.062c-2.673-.081-7.25-.155-13.345-.692a48.557,48.557,0,0,1-25.231-22.485,44.807,44.807,0,0,1-3.886-30.877A43.95,43.95,0,0,1,588.9,585.373c2.126,1.834,7.087.913,12.041-1.14,5.263-2.061,10.371-8.009,10.518-8.074.237.147-4.5-6.11-13.035-2.826-7.1,2.745-11.2,8.619-9.907,11.283a46.46,46.46,0,0,0-17.386,24.466,47.4,47.4,0,0,0,2.828,32.865,49.158,49.158,0,0,0,13.866,18.07c-11.056-4.269-30.266-13.646-44.368-32.857-9.907-12.888-16.236-29.5-16.391-45.362-.6-15.552,4.88-29.891,10.673-40.18,3.2.309,8.847-5.337,13.573-12.115,5.107-7.316,7.4-15.862,7.543-15.944.155.082-6.859.774-15.4,10.143-6.933,7.552-9.3,15.708-6.705,17.533-6.1,10.142-12.815,24.628-12.889,40.938-.839,16.474,4.954,34.079,14.87,48.417A94.472,94.472,0,0,0,552.678,646.9c-13.484-7.7-29.5-19.138-41.771-36.059-14.183-18.062-22.95-42.453-19.675-63.653,2.372-20.97,16.547-36.6,30.349-44.222,5.262.074,16.539-5.646,28.588-9.76,13.645-5.107,22.184-3.274,22.558-3.429.383.684-13.264,1.369-32.091,3.583-15.936,2.281-22.493,7.927-20.351,9.452-14.64,7.552-30.118,22.649-33.7,44.677-4.879,21.956,3.5,47.8,17.614,68,6.022,9.222,13.337,16.774,20.589,23.635-30.8-16.62-70.146-45.745-87.45-94.155-9.3-28.6-10.29-62.585,5.638-89.5,14.794-26.535,39.571-44.834,65.8-53.827,54.822-17.533,106.351,12.733,142.264,46.73" transform="translate(-421.956 -260.486)"/><path class="b" d="M530.087,323.06c-11.284-4.416-17.15-14.559-29.346-17.908-4.35,4.424,6.551,7.4,6.476,12.962-8.154,19.055-32.547,21.948-37.591,44.214,2.143,17.614,8.7,37.288,18,42.38-2.444.921-.156,1.833,1.679,1.833-.767,3.047-7.545.163-4.954,6.485-6.705-17.907-24.474-41.24-13.117-62.218-1.141-3.577-4.8,3.747-8.155,3.283,3.047,20.425-.612,47.5,14.786,55.652-2.974,6.257-5.866,1.907-8.238,3.283-4.415-16.782-9.066-33.395-9.751-54.055-10.062,2.672-10.974,14.176-23.024,14.8,3.357-34.536,14.029-70,50.772-65.421,2.819-2.143,2.517-7.242,4.962-9.759-6.484-.6-11.969,4.341-13.043-3.356,27.072-5.858,40.866,8.382,50.544,27.822" transform="translate(-380.642 -293.908)"/></g></svg>